{
    "asset" : {
        "generator" : "Khronos glTF Blender I/O v1.1.46",
        "version" : "2.0"
    },
    "scene" : 0,
    "scenes" : [
        {
            "name" : "Scene",
            "nodes" : [
                0
            ]
        }
    ],
    "nodes" : [
        {
            "mesh" : 0,
            "name" : "flecha",
            "rotation" : [
                0,
                1,
                0,
                -2.821299744937278e-07
            ],
            "scale" : [
                0.1220233216881752,
                0.1220233216881752,
                0.1220233216881752
            ]
        }
    ],
    "materials" : [
        {
            "doubleSided" : true,
            "emissiveFactor" : [
                0,
                0,
                0
            ],
            "name" : "Material",
            "pbrMetallicRoughness" : {
                "baseColorTexture" : {
                    "index" : 0,
                    "texCoord" : 0
                },
                "metallicFactor" : 0,
                "roughnessFactor" : 0.5
            }
        }
    ],
    "meshes" : [
        {
            "name" : "flecha",
            "primitives" : [
                {
                    "attributes" : {
                        "POSITION" : 0,
                        "NORMAL" : 1,
                        "TEXCOORD_0" : 2
                    },
                    "indices" : 3,
                    "material" : 0
                }
            ]
        }
    ],
    "textures" : [
        {
            "source" : 0
        }
    ],
    "images" : [
        {
            "mimeType" : "image/png",
            "name" : "diffuse_uv",
            "uri" : "diffuse_uv.png"
        }
    ],
    "accessors" : [
        {
            "bufferView" : 0,
            "componentType" : 5126,
            "count" : 82,
            "max" : [
                0.09751701354980469,
                0.33936139941215515,
                4.316613674163818
            ],
            "min" : [
                -0.12152099609375,
                -0.372598260641098,
                -4.344786167144775
            ],
            "type" : "VEC3"
        },
        {
            "bufferView" : 1,
            "componentType" : 5126,
            "count" : 82,
            "type" : "VEC3"
        },
        {
            "bufferView" : 2,
            "componentType" : 5126,
            "count" : 82,
            "type" : "VEC2"
        },
        {
            "bufferView" : 3,
            "componentType" : 5123,
            "count" : 324,
            "type" : "SCALAR"
        }
    ],
    "bufferViews" : [
        {
            "buffer" : 0,
            "byteLength" : 984,
            "byteOffset" : 0
        },
        {
            "buffer" : 0,
            "byteLength" : 984,
            "byteOffset" : 984
        },
        {
            "buffer" : 0,
            "byteLength" : 656,
            "byteOffset" : 1968
        },
        {
            "buffer" : 0,
            "byteLength" : 648,
            "byteOffset" : 2624
        }
    ],
    "buffers" : [
        {
            "byteLength" : 3272,
            "uri" : "arrow.bin"
        }
    ]
}
